# xmcd CD database file
#
# Track frame offsets:
#	182
#	18135
#	32032
#	45820
#	62402
#	80385
#	100607
#	119587
#	136392
#	156047
#	174192
#	187272
#	208475
#	220817
#
# Disc length: 3127 seconds
#
# Revision: 0
# Processed by: cddbd v1.5.2PL0 Copyright (c) Steve Scherf et al.
# Submitted via: CDex 1.70beta2
#
DISCID=b50c350e
DTITLE=Dimension Latina - Las Estrellas de la Dimension Latina
DYEAR=1900
DGENRE=Salsa
TTITLE0=Estela Mayombe
TTITLE1=Dormir Contigo
TTITLE2=Dame Tu Querer
TTITLE3=Sin tu Cariño
TTITLE4=Cantares
TTITLE5=Dolor Cobarde
TTITLE6=La Batidora
TTITLE7=Lloraras
TTITLE8=Mayeya
TTITLE9=El Frutero
TTITLE10=La Piragua
TTITLE11=Para tu Altar
TTITLE12=Viviendo del Cuento
TTITLE13=Sun Sun Babae
EXTD=
EXTT0=
EXTT1=
EXTT2=
EXTT3=
EXTT4=
EXTT5=
EXTT6=
EXTT7=
EXTT8=
EXTT9=
EXTT10=
EXTT11=
EXTT12=
EXTT13=
PLAYORDER=
